<mxfile host="app.diagrams.net" modified="2023-05-04T22:38:03.236Z" agent="Mozilla/5.0 (Windows NT 10.0; Win64; x64) AppleWebKit/537.36 (KHTML, like Gecko) Chrome/113.0.0.0 Safari/537.36" etag="r2SCGRhigICjduhO0WZ1" version="21.2.8">
  <diagram name="PÃ¡gina-1" id="8VvDeWbU6D5QOd7dpOgf">
    <mxGraphModel dx="1684" dy="915" grid="1" gridSize="10" guides="1" tooltips="1" connect="1" arrows="1" fold="1" page="1" pageScale="1" pageWidth="827" pageHeight="1169" math="0" shadow="0">
      <root>
        <mxCell id="0" />
        <mxCell id="1" parent="0" />
        <mxCell id="ZW4dNnEKjgz10sUgjqek-1" value="Actor" style="shape=umlActor;verticalLabelPosition=bottom;verticalAlign=top;html=1;outlineConnect=0;" vertex="1" parent="1">
          <mxGeometry x="40" y="80" width="30" height="60" as="geometry" />
        </mxCell>
        <mxCell id="ZW4dNnEKjgz10sUgjqek-2" value="" style="html=1;points=[];perimeter=orthogonalPerimeter;outlineConnect=0;targetShapes=umlLifeline;portConstraint=eastwest;newEdgeStyle={&quot;edgeStyle&quot;:&quot;elbowEdgeStyle&quot;,&quot;elbow&quot;:&quot;vertical&quot;,&quot;curved&quot;:0,&quot;rounded&quot;:0};" vertex="1" parent="1">
          <mxGeometry x="50" y="170" width="10" height="310" as="geometry" />
        </mxCell>
        <mxCell id="ZW4dNnEKjgz10sUgjqek-3" value="UI" style="shape=umlBoundary;whiteSpace=wrap;html=1;" vertex="1" parent="1">
          <mxGeometry x="205" y="80" width="100" height="80" as="geometry" />
        </mxCell>
        <mxCell id="ZW4dNnEKjgz10sUgjqek-4" value="Gestor Dia" style="ellipse;shape=umlControl;whiteSpace=wrap;html=1;" vertex="1" parent="1">
          <mxGeometry x="379" y="80" width="70" height="80" as="geometry" />
        </mxCell>
        <mxCell id="ZW4dNnEKjgz10sUgjqek-5" value="Dia" style="ellipse;shape=umlEntity;whiteSpace=wrap;html=1;" vertex="1" parent="1">
          <mxGeometry x="510" y="80" width="80" height="80" as="geometry" />
        </mxCell>
        <mxCell id="ZW4dNnEKjgz10sUgjqek-6" value="Gestor Hora" style="ellipse;shape=umlControl;whiteSpace=wrap;html=1;" vertex="1" parent="1">
          <mxGeometry x="660" y="80" width="70" height="80" as="geometry" />
        </mxCell>
        <mxCell id="ZW4dNnEKjgz10sUgjqek-7" value="Hora" style="ellipse;shape=umlEntity;whiteSpace=wrap;html=1;" vertex="1" parent="1">
          <mxGeometry x="800" y="80" width="80" height="80" as="geometry" />
        </mxCell>
        <mxCell id="ZW4dNnEKjgz10sUgjqek-8" value="" style="html=1;points=[];perimeter=orthogonalPerimeter;outlineConnect=0;targetShapes=umlLifeline;portConstraint=eastwest;newEdgeStyle={&quot;edgeStyle&quot;:&quot;elbowEdgeStyle&quot;,&quot;elbow&quot;:&quot;vertical&quot;,&quot;curved&quot;:0,&quot;rounded&quot;:0};" vertex="1" parent="1">
          <mxGeometry x="250" y="170" width="10" height="310" as="geometry" />
        </mxCell>
        <mxCell id="ZW4dNnEKjgz10sUgjqek-9" value="" style="html=1;points=[];perimeter=orthogonalPerimeter;outlineConnect=0;targetShapes=umlLifeline;portConstraint=eastwest;newEdgeStyle={&quot;edgeStyle&quot;:&quot;elbowEdgeStyle&quot;,&quot;elbow&quot;:&quot;vertical&quot;,&quot;curved&quot;:0,&quot;rounded&quot;:0};" vertex="1" parent="1">
          <mxGeometry x="409" y="170" width="10" height="310" as="geometry" />
        </mxCell>
        <mxCell id="ZW4dNnEKjgz10sUgjqek-10" value="" style="html=1;points=[];perimeter=orthogonalPerimeter;outlineConnect=0;targetShapes=umlLifeline;portConstraint=eastwest;newEdgeStyle={&quot;edgeStyle&quot;:&quot;elbowEdgeStyle&quot;,&quot;elbow&quot;:&quot;vertical&quot;,&quot;curved&quot;:0,&quot;rounded&quot;:0};" vertex="1" parent="1">
          <mxGeometry x="545" y="170" width="10" height="310" as="geometry" />
        </mxCell>
        <mxCell id="ZW4dNnEKjgz10sUgjqek-11" value="" style="html=1;points=[];perimeter=orthogonalPerimeter;outlineConnect=0;targetShapes=umlLifeline;portConstraint=eastwest;newEdgeStyle={&quot;edgeStyle&quot;:&quot;elbowEdgeStyle&quot;,&quot;elbow&quot;:&quot;vertical&quot;,&quot;curved&quot;:0,&quot;rounded&quot;:0};" vertex="1" parent="1">
          <mxGeometry x="690" y="170" width="10" height="310" as="geometry" />
        </mxCell>
        <mxCell id="ZW4dNnEKjgz10sUgjqek-12" value="" style="html=1;points=[];perimeter=orthogonalPerimeter;outlineConnect=0;targetShapes=umlLifeline;portConstraint=eastwest;newEdgeStyle={&quot;edgeStyle&quot;:&quot;elbowEdgeStyle&quot;,&quot;elbow&quot;:&quot;vertical&quot;,&quot;curved&quot;:0,&quot;rounded&quot;:0};" vertex="1" parent="1">
          <mxGeometry x="835" y="170" width="10" height="310" as="geometry" />
        </mxCell>
        <mxCell id="ZW4dNnEKjgz10sUgjqek-22" value="Ingrese dia para obtener datos" style="html=1;verticalAlign=bottom;endArrow=open;dashed=1;endSize=8;edgeStyle=elbowEdgeStyle;elbow=vertical;curved=0;rounded=0;" edge="1" parent="1">
          <mxGeometry relative="1" as="geometry">
            <mxPoint x="250" y="199.5" as="sourcePoint" />
            <mxPoint x="60" y="199.71428571428567" as="targetPoint" />
          </mxGeometry>
        </mxCell>
        <mxCell id="ZW4dNnEKjgz10sUgjqek-23" value="Ingresa dia" style="html=1;verticalAlign=bottom;endArrow=block;edgeStyle=elbowEdgeStyle;elbow=vertical;curved=0;rounded=0;" edge="1" parent="1">
          <mxGeometry width="80" relative="1" as="geometry">
            <mxPoint x="60" y="229" as="sourcePoint" />
            <mxPoint x="250" y="229" as="targetPoint" />
            <mxPoint as="offset" />
          </mxGeometry>
        </mxCell>
        <mxCell id="ZW4dNnEKjgz10sUgjqek-31" value="Gestor Humedad" style="ellipse;shape=umlControl;whiteSpace=wrap;html=1;" vertex="1" parent="1">
          <mxGeometry x="940" y="80" width="70" height="80" as="geometry" />
        </mxCell>
        <mxCell id="ZW4dNnEKjgz10sUgjqek-32" value="Humedad" style="ellipse;shape=umlEntity;whiteSpace=wrap;html=1;" vertex="1" parent="1">
          <mxGeometry x="1080" y="80" width="80" height="80" as="geometry" />
        </mxCell>
        <mxCell id="ZW4dNnEKjgz10sUgjqek-33" value="Gestor Temperatura" style="ellipse;shape=umlControl;whiteSpace=wrap;html=1;" vertex="1" parent="1">
          <mxGeometry x="1210" y="80" width="70" height="80" as="geometry" />
        </mxCell>
        <mxCell id="ZW4dNnEKjgz10sUgjqek-34" value="Temperatura" style="ellipse;shape=umlEntity;whiteSpace=wrap;html=1;" vertex="1" parent="1">
          <mxGeometry x="1350" y="80" width="80" height="80" as="geometry" />
        </mxCell>
        <mxCell id="ZW4dNnEKjgz10sUgjqek-35" value="Gestor Presion" style="ellipse;shape=umlControl;whiteSpace=wrap;html=1;" vertex="1" parent="1">
          <mxGeometry x="1490" y="80" width="70" height="80" as="geometry" />
        </mxCell>
        <mxCell id="ZW4dNnEKjgz10sUgjqek-36" value="Presion" style="ellipse;shape=umlEntity;whiteSpace=wrap;html=1;" vertex="1" parent="1">
          <mxGeometry x="1630" y="80" width="80" height="80" as="geometry" />
        </mxCell>
        <mxCell id="ZW4dNnEKjgz10sUgjqek-37" value="Busca dia ingresado" style="html=1;verticalAlign=bottom;endArrow=block;edgeStyle=elbowEdgeStyle;elbow=vertical;curved=0;rounded=0;" edge="1" parent="1">
          <mxGeometry width="80" relative="1" as="geometry">
            <mxPoint x="260" y="248.28571428571433" as="sourcePoint" />
            <mxPoint x="409" y="248.28571428571433" as="targetPoint" />
            <mxPoint as="offset" />
          </mxGeometry>
        </mxCell>
        <mxCell id="ZW4dNnEKjgz10sUgjqek-38" value="Verifica dia ingresado" style="html=1;verticalAlign=bottom;endArrow=block;edgeStyle=elbowEdgeStyle;elbow=vertical;curved=0;rounded=0;" edge="1" parent="1" target="ZW4dNnEKjgz10sUgjqek-10">
          <mxGeometry width="80" relative="1" as="geometry">
            <mxPoint x="419" y="259.9957142857143" as="sourcePoint" />
            <mxPoint x="568" y="259.9957142857143" as="targetPoint" />
            <mxPoint as="offset" />
          </mxGeometry>
        </mxCell>
        <mxCell id="ZW4dNnEKjgz10sUgjqek-39" value="Busca cada hora del dia&amp;nbsp;&lt;br&gt;ingresado" style="html=1;verticalAlign=bottom;endArrow=block;edgeStyle=elbowEdgeStyle;elbow=vertical;curved=0;rounded=0;" edge="1" parent="1">
          <mxGeometry width="80" relative="1" as="geometry">
            <mxPoint x="555" y="269.1357142857143" as="sourcePoint" />
            <mxPoint x="690" y="269.1428571428571" as="targetPoint" />
            <mxPoint as="offset" />
          </mxGeometry>
        </mxCell>
        <mxCell id="ZW4dNnEKjgz10sUgjqek-40" value="Verifica cada hora del dia&lt;br&gt;ingresado" style="html=1;verticalAlign=bottom;endArrow=block;edgeStyle=elbowEdgeStyle;elbow=vertical;curved=0;rounded=0;" edge="1" parent="1">
          <mxGeometry width="80" relative="1" as="geometry">
            <mxPoint x="700" y="279.1357142857143" as="sourcePoint" />
            <mxPoint x="835" y="279.1428571428571" as="targetPoint" />
            <mxPoint as="offset" />
          </mxGeometry>
        </mxCell>
        <mxCell id="ZW4dNnEKjgz10sUgjqek-41" value="" style="html=1;points=[];perimeter=orthogonalPerimeter;outlineConnect=0;targetShapes=umlLifeline;portConstraint=eastwest;newEdgeStyle={&quot;edgeStyle&quot;:&quot;elbowEdgeStyle&quot;,&quot;elbow&quot;:&quot;vertical&quot;,&quot;curved&quot;:0,&quot;rounded&quot;:0};" vertex="1" parent="1">
          <mxGeometry x="970" y="170" width="10" height="310" as="geometry" />
        </mxCell>
        <mxCell id="ZW4dNnEKjgz10sUgjqek-42" value="" style="html=1;points=[];perimeter=orthogonalPerimeter;outlineConnect=0;targetShapes=umlLifeline;portConstraint=eastwest;newEdgeStyle={&quot;edgeStyle&quot;:&quot;elbowEdgeStyle&quot;,&quot;elbow&quot;:&quot;vertical&quot;,&quot;curved&quot;:0,&quot;rounded&quot;:0};" vertex="1" parent="1">
          <mxGeometry x="1115" y="170" width="10" height="310" as="geometry" />
        </mxCell>
        <mxCell id="ZW4dNnEKjgz10sUgjqek-43" value="" style="html=1;points=[];perimeter=orthogonalPerimeter;outlineConnect=0;targetShapes=umlLifeline;portConstraint=eastwest;newEdgeStyle={&quot;edgeStyle&quot;:&quot;elbowEdgeStyle&quot;,&quot;elbow&quot;:&quot;vertical&quot;,&quot;curved&quot;:0,&quot;rounded&quot;:0};" vertex="1" parent="1">
          <mxGeometry x="1240" y="170" width="10" height="310" as="geometry" />
        </mxCell>
        <mxCell id="ZW4dNnEKjgz10sUgjqek-44" value="" style="html=1;points=[];perimeter=orthogonalPerimeter;outlineConnect=0;targetShapes=umlLifeline;portConstraint=eastwest;newEdgeStyle={&quot;edgeStyle&quot;:&quot;elbowEdgeStyle&quot;,&quot;elbow&quot;:&quot;vertical&quot;,&quot;curved&quot;:0,&quot;rounded&quot;:0};" vertex="1" parent="1">
          <mxGeometry x="1385" y="170" width="10" height="310" as="geometry" />
        </mxCell>
        <mxCell id="ZW4dNnEKjgz10sUgjqek-45" value="" style="html=1;points=[];perimeter=orthogonalPerimeter;outlineConnect=0;targetShapes=umlLifeline;portConstraint=eastwest;newEdgeStyle={&quot;edgeStyle&quot;:&quot;elbowEdgeStyle&quot;,&quot;elbow&quot;:&quot;vertical&quot;,&quot;curved&quot;:0,&quot;rounded&quot;:0};" vertex="1" parent="1">
          <mxGeometry x="1520" y="170" width="10" height="310" as="geometry" />
        </mxCell>
        <mxCell id="ZW4dNnEKjgz10sUgjqek-46" value="" style="html=1;points=[];perimeter=orthogonalPerimeter;outlineConnect=0;targetShapes=umlLifeline;portConstraint=eastwest;newEdgeStyle={&quot;edgeStyle&quot;:&quot;elbowEdgeStyle&quot;,&quot;elbow&quot;:&quot;vertical&quot;,&quot;curved&quot;:0,&quot;rounded&quot;:0};" vertex="1" parent="1">
          <mxGeometry x="1665" y="170" width="10" height="310" as="geometry" />
        </mxCell>
        <mxCell id="ZW4dNnEKjgz10sUgjqek-47" value="Busca humedad" style="html=1;verticalAlign=bottom;endArrow=block;edgeStyle=elbowEdgeStyle;elbow=vertical;curved=0;rounded=0;entryX=0;entryY=0.387;entryDx=0;entryDy=0;entryPerimeter=0;" edge="1" parent="1" target="ZW4dNnEKjgz10sUgjqek-41">
          <mxGeometry width="80" relative="1" as="geometry">
            <mxPoint x="845" y="289.1357142857143" as="sourcePoint" />
            <mxPoint x="980" y="289.1428571428571" as="targetPoint" />
            <mxPoint as="offset" />
          </mxGeometry>
        </mxCell>
        <mxCell id="ZW4dNnEKjgz10sUgjqek-48" value="Verifica humedad" style="html=1;verticalAlign=bottom;endArrow=block;edgeStyle=elbowEdgeStyle;elbow=vertical;curved=0;rounded=0;" edge="1" parent="1" target="ZW4dNnEKjgz10sUgjqek-42">
          <mxGeometry width="80" relative="1" as="geometry">
            <mxPoint x="980" y="299.1357142857143" as="sourcePoint" />
            <mxPoint x="1105" y="300" as="targetPoint" />
            <mxPoint as="offset" />
          </mxGeometry>
        </mxCell>
        <mxCell id="ZW4dNnEKjgz10sUgjqek-49" value="Busca temperatura" style="html=1;verticalAlign=bottom;endArrow=block;edgeStyle=elbowEdgeStyle;elbow=vertical;curved=0;rounded=0;" edge="1" parent="1" target="ZW4dNnEKjgz10sUgjqek-43">
          <mxGeometry width="80" relative="1" as="geometry">
            <mxPoint x="1125" y="309.1357142857143" as="sourcePoint" />
            <mxPoint x="1250" y="310" as="targetPoint" />
            <mxPoint as="offset" />
          </mxGeometry>
        </mxCell>
        <mxCell id="ZW4dNnEKjgz10sUgjqek-50" value="Verifica temperatura" style="html=1;verticalAlign=bottom;endArrow=block;edgeStyle=elbowEdgeStyle;elbow=vertical;curved=0;rounded=0;" edge="1" parent="1">
          <mxGeometry width="80" relative="1" as="geometry">
            <mxPoint x="1250" y="320.1357142857143" as="sourcePoint" />
            <mxPoint x="1385" y="320" as="targetPoint" />
            <mxPoint as="offset" />
          </mxGeometry>
        </mxCell>
        <mxCell id="ZW4dNnEKjgz10sUgjqek-51" value="Busca presion" style="html=1;verticalAlign=bottom;endArrow=block;edgeStyle=elbowEdgeStyle;elbow=vertical;curved=0;rounded=0;" edge="1" parent="1" target="ZW4dNnEKjgz10sUgjqek-45">
          <mxGeometry width="80" relative="1" as="geometry">
            <mxPoint x="1395" y="330.1357142857143" as="sourcePoint" />
            <mxPoint x="1530" y="330" as="targetPoint" />
            <mxPoint as="offset" />
          </mxGeometry>
        </mxCell>
        <mxCell id="ZW4dNnEKjgz10sUgjqek-52" value="Verifica presion" style="html=1;verticalAlign=bottom;endArrow=block;edgeStyle=elbowEdgeStyle;elbow=vertical;curved=0;rounded=0;" edge="1" parent="1">
          <mxGeometry width="80" relative="1" as="geometry">
            <mxPoint x="1530" y="340.2757142857143" as="sourcePoint" />
            <mxPoint x="1665" y="340.14" as="targetPoint" />
            <mxPoint as="offset" />
          </mxGeometry>
        </mxCell>
        <mxCell id="ZW4dNnEKjgz10sUgjqek-53" value="retorna presion" style="html=1;verticalAlign=bottom;endArrow=open;dashed=1;endSize=8;edgeStyle=elbowEdgeStyle;elbow=vertical;curved=0;rounded=0;" edge="1" parent="1">
          <mxGeometry relative="1" as="geometry">
            <mxPoint x="1665" y="362.28571428571433" as="sourcePoint" />
            <mxPoint x="1530" y="362.28571428571433" as="targetPoint" />
          </mxGeometry>
        </mxCell>
        <mxCell id="ZW4dNnEKjgz10sUgjqek-54" value="retorna datos" style="html=1;verticalAlign=bottom;endArrow=open;dashed=1;endSize=8;edgeStyle=elbowEdgeStyle;elbow=vertical;curved=0;rounded=0;" edge="1" parent="1" target="ZW4dNnEKjgz10sUgjqek-44">
          <mxGeometry relative="1" as="geometry">
            <mxPoint x="1520" y="372.28571428571433" as="sourcePoint" />
            <mxPoint x="1385" y="372.28571428571433" as="targetPoint" />
          </mxGeometry>
        </mxCell>
        <mxCell id="ZW4dNnEKjgz10sUgjqek-55" value="retorna temperatura y &lt;br&gt;presion" style="html=1;verticalAlign=bottom;endArrow=open;dashed=1;endSize=8;edgeStyle=elbowEdgeStyle;elbow=vertical;curved=0;rounded=0;" edge="1" parent="1">
          <mxGeometry relative="1" as="geometry">
            <mxPoint x="1385" y="385.14571428571435" as="sourcePoint" />
            <mxPoint x="1250" y="385.14571428571435" as="targetPoint" />
          </mxGeometry>
        </mxCell>
        <mxCell id="ZW4dNnEKjgz10sUgjqek-56" value="retorna datos" style="html=1;verticalAlign=bottom;endArrow=open;dashed=1;endSize=8;edgeStyle=elbowEdgeStyle;elbow=vertical;curved=0;rounded=0;" edge="1" parent="1">
          <mxGeometry relative="1" as="geometry">
            <mxPoint x="1241" y="395.28571428571433" as="sourcePoint" />
            <mxPoint x="1125" y="395.1428571428571" as="targetPoint" />
          </mxGeometry>
        </mxCell>
        <mxCell id="ZW4dNnEKjgz10sUgjqek-57" value="retorna humedad, &lt;br&gt;temperatura y presion" style="html=1;verticalAlign=bottom;endArrow=open;dashed=1;endSize=8;edgeStyle=elbowEdgeStyle;elbow=vertical;curved=0;rounded=0;" edge="1" parent="1">
          <mxGeometry relative="1" as="geometry">
            <mxPoint x="1115" y="407.14571428571435" as="sourcePoint" />
            <mxPoint x="980" y="407.14571428571435" as="targetPoint" />
          </mxGeometry>
        </mxCell>
        <mxCell id="ZW4dNnEKjgz10sUgjqek-59" value="retorna datos" style="html=1;verticalAlign=bottom;endArrow=open;dashed=1;endSize=8;edgeStyle=elbowEdgeStyle;elbow=vertical;curved=0;rounded=0;" edge="1" parent="1">
          <mxGeometry relative="1" as="geometry">
            <mxPoint x="970" y="418.14571428571435" as="sourcePoint" />
            <mxPoint x="845" y="418.1428571428571" as="targetPoint" />
          </mxGeometry>
        </mxCell>
        <mxCell id="ZW4dNnEKjgz10sUgjqek-60" value="retorna hora, humedad&lt;br&gt;temperatura y presion" style="html=1;verticalAlign=bottom;endArrow=open;dashed=1;endSize=8;edgeStyle=elbowEdgeStyle;elbow=vertical;curved=0;rounded=0;" edge="1" parent="1">
          <mxGeometry relative="1" as="geometry">
            <mxPoint x="835" y="429.99571428571437" as="sourcePoint" />
            <mxPoint x="700" y="429.99571428571437" as="targetPoint" />
          </mxGeometry>
        </mxCell>
        <mxCell id="ZW4dNnEKjgz10sUgjqek-61" value="retorna datos" style="html=1;verticalAlign=bottom;endArrow=open;dashed=1;endSize=8;edgeStyle=elbowEdgeStyle;elbow=vertical;curved=0;rounded=0;" edge="1" parent="1" target="ZW4dNnEKjgz10sUgjqek-10">
          <mxGeometry relative="1" as="geometry">
            <mxPoint x="690" y="440.00571428571436" as="sourcePoint" />
            <mxPoint x="565" y="440.0028571428571" as="targetPoint" />
          </mxGeometry>
        </mxCell>
        <mxCell id="ZW4dNnEKjgz10sUgjqek-62" value="retorna dia, hora, &lt;br&gt;humedad temperatura &lt;br&gt;y presion" style="html=1;verticalAlign=bottom;endArrow=open;dashed=1;endSize=8;edgeStyle=elbowEdgeStyle;elbow=vertical;curved=0;rounded=0;" edge="1" parent="1" target="ZW4dNnEKjgz10sUgjqek-9">
          <mxGeometry relative="1" as="geometry">
            <mxPoint x="545" y="449.99571428571437" as="sourcePoint" />
            <mxPoint x="410" y="449.99571428571437" as="targetPoint" />
          </mxGeometry>
        </mxCell>
        <mxCell id="ZW4dNnEKjgz10sUgjqek-63" value="retorna datos" style="html=1;verticalAlign=bottom;endArrow=open;dashed=1;endSize=8;edgeStyle=elbowEdgeStyle;elbow=vertical;curved=0;rounded=0;" edge="1" parent="1" target="ZW4dNnEKjgz10sUgjqek-8">
          <mxGeometry x="-0.0029" relative="1" as="geometry">
            <mxPoint x="409" y="460.14571428571435" as="sourcePoint" />
            <mxPoint x="274" y="460.14" as="targetPoint" />
            <mxPoint as="offset" />
          </mxGeometry>
        </mxCell>
        <mxCell id="ZW4dNnEKjgz10sUgjqek-65" value="muestra para el dia seleccionado&lt;br&gt;los datos por cada hora de humedad&lt;br&gt;temperatura y presion" style="html=1;verticalAlign=bottom;endArrow=open;dashed=1;endSize=8;edgeStyle=elbowEdgeStyle;elbow=vertical;curved=0;rounded=0;" edge="1" parent="1">
          <mxGeometry x="-0.0029" relative="1" as="geometry">
            <mxPoint x="250" y="473.14571428571435" as="sourcePoint" />
            <mxPoint x="60" y="473.42857142857144" as="targetPoint" />
            <mxPoint as="offset" />
          </mxGeometry>
        </mxCell>
        <mxCell id="ZW4dNnEKjgz10sUgjqek-66" value="loop" style="shape=umlFrame;whiteSpace=wrap;html=1;pointerEvents=0;" vertex="1" parent="1">
          <mxGeometry x="555" y="200" width="1135" height="290" as="geometry" />
        </mxCell>
        <mxCell id="ZW4dNnEKjgz10sUgjqek-67" value="Busca todos los &lt;br&gt;factores para cada &lt;br&gt;hora del dia ingresado" style="text;html=1;align=center;verticalAlign=middle;resizable=0;points=[];autosize=1;strokeColor=none;fillColor=none;" vertex="1" parent="1">
          <mxGeometry x="555" y="147" width="140" height="60" as="geometry" />
        </mxCell>
      </root>
    </mxGraphModel>
  </diagram>
</mxfile>
